<svg xmlns="http://www.w3.org/2000/svg" viewBox="0 0 167.08 55"><defs><style>.cls-1{fill:#373636;}.cls-2{fill:#956a4c;}</style></defs><g id="Layer_2" data-name="Layer 2"><g id="Layer_1-2" data-name="Layer 1"><path class="cls-1" d="M55.42,43.18v0a7.76,7.76,0,0,1,8-7.79,7.07,7.07,0,0,1,6.37,3.34l-3.56,2.65a3.23,3.23,0,0,0-2.79-1.57,3.09,3.09,0,0,0-2.92,3.31v.06a3.1,3.1,0,0,0,3,3.4A3.58,3.58,0,0,0,66.38,45l3.51,2.54a7.42,7.42,0,0,1-6.66,3.42,7.7,7.7,0,0,1-7.81-7.76"/><path class="cls-1" d="M82.11,43.18v0a3.24,3.24,0,0,0-3.17-3.37,3.13,3.13,0,0,0-3.12,3.31v.06A3.24,3.24,0,0,0,79,46.5a3.13,3.13,0,0,0,3.12-3.32m-11.4,0v0A8,8,0,0,1,79,35.32a7.87,7.87,0,0,1,8.23,7.75v.06a8.27,8.27,0,0,1-16.51,0"/><path class="cls-1" d="M89.43,35.65h5.24v2.1a5.53,5.53,0,0,1,4.48-2.43c3.17,0,5.08,2.09,5.08,5.49v9.77H99V42.49c0-1.62-.86-2.51-2.1-2.51a2.21,2.21,0,0,0-2.21,2.51v8.09H89.43Z"/><path class="cls-1" d="M106.32,43.18v0a7.76,7.76,0,0,1,8-7.79,7.07,7.07,0,0,1,6.37,3.34l-3.56,2.65a3.23,3.23,0,0,0-2.79-1.57,3.09,3.09,0,0,0-2.92,3.31v.06a3.1,3.1,0,0,0,3,3.4A3.58,3.58,0,0,0,117.28,45l3.51,2.54a7.42,7.42,0,0,1-6.66,3.42,7.7,7.7,0,0,1-7.81-7.76"/><path class="cls-1" d="M131.77,41.89c-.19-1.66-1.16-2.71-2.59-2.71s-2.32,1.08-2.6,2.71Zm-10.16,1.29v0a7.49,7.49,0,0,1,7.54-7.81c5.16,0,7.54,3.78,7.54,8.17,0,.33,0,.72,0,1.08h-10A3.08,3.08,0,0,0,129.9,47a4.51,4.51,0,0,0,3.31-1.52l2.9,2.41a7.84,7.84,0,0,1-6.49,3c-4.69,0-8-3.12-8-7.76"/><path class="cls-1" d="M150.16,43.13v-.06a3.06,3.06,0,1,0-6.1,0v.06a3.07,3.07,0,1,0,6.1,0m-11.24-7.48h5.25v2a5.47,5.47,0,0,1,4.52-2.31c3.57,0,6.63,3,6.63,7.73v.05c0,4.86-3.06,7.81-6.6,7.81a5.6,5.6,0,0,1-4.55-2.15V55h-5.25Z"/><path class="cls-1" d="M158.36,46V39.87h-1.77V35.65h1.77V31.87h5.24v3.78h3.48v4.22H163.6v5.05c0,1,.47,1.49,1.44,1.49a4.59,4.59,0,0,0,2-.49V50a7.39,7.39,0,0,1-3.64.86c-3.15,0-5-1.38-5-4.94"/><path class="cls-2" d="M0,0H8.48V11.74A8.91,8.91,0,0,1,15.72,7.9c5.13,0,8.21,3.4,8.21,8.89v15.8H15.45V19.51c0-2.63-1.39-4.06-3.4-4.06s-3.57,1.43-3.57,4.06V32.59H0Z"/><polygon class="cls-2" points="32.55 20.9 20.68 0 30.54 0 36.97 12.73 43.45 0 53.13 0 41.26 20.76 41.26 32.59 32.55 32.59 32.55 20.9"/><path class="cls-2" d="M74,20.54v-.09c0-3.17-2.19-5.45-5-5.45s-4.91,2.28-4.91,5.45v.09c0,3.21,2.19,5.49,4.91,5.49s5-2.23,5-5.49m-9.69,9.11v2.94H55.87V0h8.48V11.65A8.89,8.89,0,0,1,71.67,7.9c5.76,0,10.72,4.78,10.72,12.5v.09c0,7.86-5,12.64-10.67,12.64a9.07,9.07,0,0,1-7.37-3.48"/><path class="cls-2" d="M99.51,15c2.95,0,4.64-1.43,4.64-3.7v-.09c0-2.46-1.78-3.71-4.69-3.71H93.79V15ZM85.13,0H99.91c4.78,0,8.08,1.25,10.18,3.39a9.71,9.71,0,0,1,2.77,7.28v.09a9.89,9.89,0,0,1-6.43,9.6l7.46,12.23h-10l-6.29-10.8h-3.8v10.8H85.13Z"/><path class="cls-2" d="M116.93,8.44h8.48V32.59h-8.48ZM116.75,0h8.84V6.25h-8.84Z"/><path class="cls-2" d="M142.82,24.91c5.18,0,8.62-2.95,8.62-8v-.09c0-5-3.44-9.15-8.62-9.15H139.3V24.91ZM130.63,0h12.06c11.16,0,17.64,7.68,17.64,16.7v.09c0,9-6.57,15.8-17.82,15.8H130.63Z"/></g></g></svg>