<svg viewBox="0 0 167.08 55" xmlns="http://www.w3.org/2000/svg"><g fill="#373636"><path d="m55.42 43.18a7.76 7.76 0 0 1 8-7.79 7.07 7.07 0 0 1 6.37 3.34l-3.56 2.65a3.23 3.23 0 0 0 -2.79-1.57 3.09 3.09 0 0 0 -2.92 3.31v.06a3.1 3.1 0 0 0 3 3.4 3.58 3.58 0 0 0 2.86-1.58l3.51 2.54a7.42 7.42 0 0 1 -6.66 3.42 7.7 7.7 0 0 1 -7.81-7.76"/><path d="m82.11 43.18a3.24 3.24 0 0 0 -3.17-3.37 3.13 3.13 0 0 0 -3.12 3.31v.06a3.24 3.24 0 0 0 3.18 3.32 3.13 3.13 0 0 0 3.12-3.32m-11.4 0a8 8 0 0 1 8.28-7.86 7.87 7.87 0 0 1 8.23 7.75v.06a8.27 8.27 0 0 1 -16.51 0"/><path d="m89.43 35.65h5.24v2.1a5.53 5.53 0 0 1 4.48-2.43c3.17 0 5.08 2.09 5.08 5.49v9.77h-5.23v-8.09c0-1.62-.86-2.51-2.1-2.51a2.21 2.21 0 0 0 -2.21 2.51v8.09h-5.26z"/><path d="m106.32 43.18a7.76 7.76 0 0 1 8-7.79 7.07 7.07 0 0 1 6.37 3.34l-3.56 2.65a3.23 3.23 0 0 0 -2.79-1.57 3.09 3.09 0 0 0 -2.92 3.31v.06a3.1 3.1 0 0 0 3 3.4 3.58 3.58 0 0 0 2.86-1.58l3.51 2.54a7.42 7.42 0 0 1 -6.66 3.42 7.7 7.7 0 0 1 -7.81-7.76"/><path d="m131.77 41.89c-.19-1.66-1.16-2.71-2.59-2.71s-2.32 1.08-2.6 2.71zm-10.16 1.29a7.49 7.49 0 0 1 7.54-7.81c5.16 0 7.54 3.78 7.54 8.17v1.08h-10a3.08 3.08 0 0 0 3.21 2.38 4.51 4.51 0 0 0 3.31-1.52l2.9 2.41a7.84 7.84 0 0 1 -6.49 3c-4.69 0-8-3.12-8-7.76"/><path d="m150.16 43.13v-.06a3.06 3.06 0 1 0 -6.1 0v.06a3.07 3.07 0 1 0 6.1 0m-11.24-7.48h5.25v2a5.47 5.47 0 0 1 4.52-2.31c3.57 0 6.63 3 6.63 7.73v.05c0 4.86-3.06 7.81-6.6 7.81a5.6 5.6 0 0 1 -4.55-2.15v6.22h-5.25z"/><path d="m158.36 46v-6.13h-1.77v-4.22h1.77v-3.78h5.24v3.78h3.48v4.22h-3.48v5.05c0 1 .47 1.49 1.44 1.49a4.59 4.59 0 0 0 2-.49v4.08a7.39 7.39 0 0 1 -3.64.86c-3.15 0-5-1.38-5-4.94"/></g><path d="m0 0h8.48v11.74a8.91 8.91 0 0 1 7.24-3.84c5.13 0 8.21 3.4 8.21 8.89v15.8h-8.48v-13.08c0-2.63-1.39-4.06-3.4-4.06s-3.57 1.43-3.57 4.06v13.08h-8.48z" fill="#956a4c"/><path d="m32.55 20.9-11.87-20.9h9.86l6.43 12.73 6.48-12.73h9.68l-11.87 20.76v11.83h-8.71z" fill="#956a4c"/><path d="m74 20.54v-.09c0-3.17-2.19-5.45-5-5.45s-4.91 2.28-4.91 5.45v.09c0 3.21 2.19 5.49 4.91 5.49s5-2.23 5-5.49m-9.69 9.11v2.94h-8.44v-32.59h8.48v11.65a8.89 8.89 0 0 1 7.32-3.75c5.76 0 10.72 4.78 10.72 12.5v.09c0 7.86-5 12.64-10.67 12.64a9.07 9.07 0 0 1 -7.37-3.48" fill="#956a4c"/><path d="m99.51 15c2.95 0 4.64-1.43 4.64-3.7v-.09c0-2.46-1.78-3.71-4.69-3.71h-5.67v7.5zm-14.38-15h14.78c4.78 0 8.08 1.25 10.18 3.39a9.71 9.71 0 0 1 2.77 7.28v.09a9.89 9.89 0 0 1 -6.43 9.6l7.46 12.23h-10l-6.29-10.8h-3.8v10.8h-8.67z" fill="#956a4c"/><path d="m116.93 8.44h8.48v24.15h-8.48zm-.18-8.44h8.84v6.25h-8.84z" fill="#956a4c"/><path d="m142.82 24.91c5.18 0 8.62-2.95 8.62-8v-.09c0-5-3.44-9.15-8.62-9.15h-3.52v17.24zm-12.19-24.91h12.06c11.16 0 17.64 7.68 17.64 16.7v.09c0 9-6.57 15.8-17.82 15.8h-11.88z" fill="#956a4c"/></svg>