<svg id="Layer_1" data-name="Layer 1" xmlns="http://www.w3.org/2000/svg" viewBox="0 0 500 500"><defs><style>.cls-1{fill:#96694c;}</style></defs><path class="cls-1" d="M167.53,109.32c5.58,1.21,10.93,2.92,15.39,6.69.63.53,1.29,1,1.87,1.61,12.63,12.62,25.32,25.18,37.87,37.89C232,165,233.59,177.93,227,188.72a23.53,23.53,0,0,1-12.49,10.21c-7.75,2.79-13.74,7.54-17.07,15.25A23.49,23.49,0,0,0,196.38,230c3.77,14.15,11.54,26,21,36.87,11.33,13,24.3,24.1,39.91,31.75,6.52,3.2,13.23,6,20.76,4.93,9.95-1.38,17.55-6.23,21.47-15.73,2.57-6.23,5.69-11.83,11.74-15.37,9.83-5.76,22.23-5,30.67,2.67,7.7,7,14.93,14.58,22.31,22,6.72,6.74,13.69,13.27,19.95,20.42,7.9,9,8.14,23.13,1.16,32.89a46.66,46.66,0,0,1-4.76,5.65c-7.4,7.5-15,14.76-22.27,22.41-7.73,8.16-17.27,11.71-28.19,12.18-11.7.49-22.91-2.11-33.88-5.82-21.6-7.31-41.09-18.67-59.54-31.86a387,387,0,0,1-80.49-77.42c-17-21.83-31.56-45.13-40.56-71.51-3.91-11.49-6.55-23.24-5.93-35.52.54-10.75,4-20.1,12.06-27.67,6.72-6.35,13.25-12.91,19.62-19.61,5.62-5.89,11.7-10.77,20.08-11.89Z"/></svg>