<svg viewBox="0 0 500 500" xmlns="http://www.w3.org/2000/svg"><g fill="#96694c"><path d="m447.45 370.73c.87-6.05 2.38-11.63 2.39-17.22q.24-103.45.1-206.91a23.51 23.51 0 0 0 -.12-4.68c-.88-4.16-2-8.27-2.8-11.6l-121.13 119.92z"/><path d="m70.7 387.21c5.55 2.86 11.13 3.43 16.87 3.43h324.82a25.14 25.14 0 0 0 4.68-.12c4-.75 7.95-1.71 12.66-2.74l-121.23-120.17c-10.06 10-20.59 20.43-31.09 30.9-16.22 16.16-38.67 16.18-54.83 0q-14.36-14.37-28.67-28.76c-1-1-2-1.9-2.37-2.22z"/><path d="m70.23 112.19c1.58 1.7 2.43 2.65 3.31 3.55l165.69 166.26c6.84 6.86 14.68 6.84 21.54 0q82.86-83.1 165.69-166.23c.88-.88 1.7-1.83 2.8-3a38.79 38.79 0 0 0 -17.06-3.32q-162.24 0-324.49 0a25.92 25.92 0 0 0 -4.67.12c-4 .74-8 1.67-12.81 2.7"/><path d="m50 139.84 3.22-9.94 120.83 119.77q-60.59 60-120.93 119.79c-.81-2.43-2-5.86-3.12-9.3z"/></g></svg>